<?xml version="1.0" encoding="utf-8"?>
<!-- Generator: Adobe Illustrator 28.1.0, SVG Export Plug-In . SVG Version: 6.00 Build 0)  -->
<svg version="1.1" id="Layer_1" xmlns="http://www.w3.org/2000/svg" xmlns:xlink="http://www.w3.org/1999/xlink" x="0px" y="0px"
	 viewBox="0 0 512 512" style="enable-background:new 0 0 512 512;" xml:space="preserve">
<style type="text/css">
	.st0{fill:#FDFBE0;}
	.st1{fill:#9C8D58;}
</style>
<path class="st0" d="M173.3,188.9l-25.6,25.6c1.2,2.2,2.4,4.6,3.7,6.9c12.2,22,28.8,52,60.4,83.6c31.7,31.7,61.8,48.4,83.7,60.6
	c2.3,1.3,3.8,1.8,6,3l22.5-24l2.5-2.5c19-19,49.8-19,68.8,0l50.8,50.8c19.1,19.1,19,50.1-0.3,69.1l-10.2,10
	c-8.3,6.5-18,12-28.3,16.1c-9.9,3.7-19.3,6.1-28.7,7.2c-75.5,9.1-144.5-25.4-238.1-118.9C11.3,247,21,142.7,21.5,138.2
	c1.2-9.8,3.5-19.2,7.2-28.7c4-10.2,9.6-20,16.1-28.3l10-10.2c19-19.3,50-19.4,69.1-0.3l49.4,49.4
	C192.3,139.1,192.3,169.9,173.3,188.9z"/>
<g>
	<path class="st1" d="M355.6,512c-70.7,0-138.2-37.3-225.8-124.8c-55.6-55.6-93.3-113.5-112-172.1C3.2,169.4,6,139.7,6.3,136.5
		c1.3-11.2,4-21.8,8.1-32.5C19,92.4,25.3,81.3,32.8,71.7c0.3-0.4,0.7-0.9,1.1-1.3l10-10.2C56,48,72.2,41.2,89.5,41.2
		c17.1,0,33.1,6.7,45.2,18.7l49.4,49.4c24.9,24.9,24.9,65.5,0,90.4l-17.5,17.5c11.6,20.8,27.4,48.4,56.1,77
		c28.2,28.1,55.1,44,75.7,55.5l14.6-15.5c0.1-0.1,0.2-0.2,0.3-0.3l2.5-2.5c12.1-12.1,28.1-18.7,45.2-18.7s33.1,6.6,45.2,18.7
		l50.8,50.8c12.1,12.1,18.8,28.3,18.7,45.5c-0.1,17.2-6.8,33.3-19.1,45.3l-10.1,10c-0.4,0.4-0.8,0.8-1.3,1.1
		c-9.5,7.4-20.6,13.7-32.2,18.3c-0.1,0-0.1,0-0.2,0.1c-11.2,4.2-21.8,6.9-32.4,8.1C372.1,511.5,363.8,512,355.6,512
		C355.6,512,355.6,512,355.6,512z M56.3,91.2c-5.5,7.1-10.1,15.3-13.4,23.8c-3.2,8.3-5.2,16.4-6.3,25c0,0.2-2.6,25.5,10.2,65.8
		c11.8,37,39.6,94.8,104.5,159.8c81.3,81.2,142.3,115.9,204.2,115.9c0,0,0,0,0,0c7,0,14.1-0.4,21.3-1.3c0.1,0,0.1,0,0.2,0
		c8-0.9,16.1-2.9,24.9-6.2c8.5-3.3,16.7-8,23.7-13.3l9.5-9.4c6.4-6.3,9.9-14.7,10-23.7c0-9-3.4-17.4-9.8-23.8L384.6,353
		c-6.3-6.3-14.7-9.8-23.6-9.8s-17.3,3.5-23.6,9.8l-2.3,2.3l-22.4,23.8c-4.8,5.1-12.4,6.3-18.5,2.9c-0.7-0.4-1.3-0.7-1.9-1
		c-1.1-0.5-2.4-1.2-4.1-2.1c-22.7-12.6-53.8-29.8-87-63.1c-33-33-50.2-64-62.8-86.7l-0.2-0.3c-0.8-1.5-1.6-3-2.4-4.5
		c-0.5-0.9-0.9-1.7-1.4-2.6c-3.2-5.9-2.2-13.3,2.6-18.1l25.6-25.6c13-13,13-34.2,0-47.3l-49.4-49.4c-6.3-6.3-14.7-9.8-23.6-9.8
		c-9,0-17.5,3.5-23.8,10L56.3,91.2z"/>
	<path class="st1" d="M488,244.6c-0.9,0-1.8-0.1-2.7-0.2c-8.3-1.5-13.8-9.4-12.3-17.7c9.7-53.8-7.5-108.9-46-147.4
		s-93.7-55.8-147.4-46c-8.3,1.5-16.2-4-17.7-12.3c-1.5-8.3,4-16.2,12.3-17.7C337.6-8.3,402.8,12,448.5,57.7
		c45.6,45.6,66,110.8,54.5,174.4C501.6,239.5,495.2,244.6,488,244.6z"/>
	<path class="st1" d="M394.9,244.6c-1.8,0-3.6-0.3-5.4-1c-7.9-3-11.9-11.8-8.9-19.7c10.6-28.1,3.8-59.9-17.4-81.1s-53-28-81.1-17.4
		c-7.9,3-16.7-1-19.7-8.9c-3-7.9,1-16.7,8.9-19.7c39.3-14.9,83.8-5.3,113.4,24.4c29.7,29.7,39.2,74.2,24.4,113.4
		C406.8,240.9,401,244.6,394.9,244.6z"/>
</g>
</svg>
